<svg width="126.000000" height="61.195312" viewBox="0 0 126 61.1953" fill="none" xmlns="http://www.w3.org/2000/svg" xmlns:xlink="http://www.w3.org/1999/xlink">
	<desc>
			Created with Pixso.
	</desc>
	<defs/>
	<rect id="-30%" width="126.000000" height="61.000000" transform="translate(0.000000 0.195312)" fill="#FFFFFF" fill-opacity="0"/>
	<path id="-30%" d="M84.02 46.37C84.25 46.64 84.64 46.87 85.18 47.06C87.9 42.77 90.56 38.65 93.15 34.7C95.75 30.75 98.34 26.9 100.92 23.16C103.51 19.4 106.11 15.71 108.74 12.08Q112.68 6.64 116.87 1.19C116.48 0.39 115.95 0 115.26 0C115.09 0 114.93 0.03 114.77 0.09C114.62 0.13 114.44 0.24 114.25 0.39C114.06 0.54 113.84 0.75 113.6 1.03C113.37 1.29 113.09 1.64 112.77 2.07C108.66 7.67 104.97 12.79 101.69 17.43C98.42 22.05 95.57 26.14 93.17 29.68C90.77 33.22 88.81 36.19 87.29 38.59C85.78 40.97 84.72 42.72 84.13 43.82C83.83 44.38 83.68 44.88 83.68 45.32C83.68 45.77 83.8 46.12 84.02 46.37ZM80.21 25C81.38 25.41 82.64 25.61 83.99 25.61C85.73 25.61 87.25 25.26 88.54 24.57C89.83 23.86 90.9 22.9 91.74 21.69C92.58 20.49 93.21 19.09 93.62 17.48C94.03 15.87 94.23 14.17 94.23 12.37Q94.23 9.61 93.53 7.62C93.07 6.29 92.43 5.2 91.59 4.35C90.78 3.48 89.79 2.85 88.65 2.45C87.51 2.04 86.25 1.84 84.89 1.84C83.17 1.84 81.65 2.19 80.34 2.9C79.03 3.6 77.93 4.55 77.05 5.76C76.17 6.96 75.51 8.37 75.06 9.97C74.62 11.57 74.39 13.27 74.39 15.06C74.39 16.91 74.64 18.5 75.14 19.83C75.63 21.16 76.3 22.25 77.16 23.1C78.03 23.96 79.04 24.59 80.21 25ZM86.68 23.02Q85.63 23.63 84.22 23.63C83.43 23.63 82.67 23.46 81.95 23.12C81.24 22.78 80.61 22.24 80.07 21.49C79.53 20.74 79.09 19.75 78.77 18.55C78.45 17.35 78.3 15.87 78.3 14.12C78.3 12.61 78.42 11.21 78.66 9.95C78.91 8.67 79.28 7.58 79.78 6.68C80.28 5.76 80.92 5.05 81.68 4.55C82.43 4.04 83.33 3.79 84.37 3.79C85.17 3.79 85.94 3.96 86.66 4.3C87.38 4.63 88.02 5.18 88.56 5.94C89.11 6.69 89.55 7.66 89.86 8.87C90.18 10.07 90.35 11.55 90.35 13.29Q90.35 15.57 89.97 17.47C89.73 18.73 89.35 19.82 88.85 20.74C88.34 21.65 87.7 22.36 86.93 22.87Q86.81 22.95 86.68 23.02ZM28.87 34.57C27.66 35.21 26.41 35.76 25.11 36.22L25.29 37.5C25.54 37.48 25.75 37.46 25.92 37.45C26.1 37.44 26.31 37.43 26.54 37.43L27.1 37.43Q28.71 37.43 30.19 37.88Q30.41 37.95 30.64 38.03C31.77 38.41 32.76 38.98 33.6 39.74C34.46 40.49 35.14 41.42 35.64 42.52C36.15 43.62 36.4 44.88 36.4 46.3C36.4 47.65 36.16 48.86 35.68 49.93C35.21 51 34.58 51.91 33.8 52.66C33.02 53.41 32.12 53.98 31.11 54.38Q30.08 54.78 29.02 54.91Q28.53 54.97 28.04 54.97C27.29 54.97 26.55 54.87 25.81 54.66C25.08 54.46 24.38 54.14 23.72 53.71C23.06 53.29 22.44 52.74 21.88 52.08C21.32 51.43 20.85 50.65 20.45 49.73C20.04 49.73 19.66 49.81 19.31 49.97C18.96 50.14 18.66 50.35 18.41 50.62C18.15 50.88 17.96 51.18 17.81 51.5C17.67 51.83 17.59 52.16 17.59 52.5C17.59 53.13 17.73 53.69 18.01 54.18C18.27 54.67 18.63 55.1 19.08 55.46C19.53 55.83 20.05 56.15 20.63 56.4C21.22 56.65 21.82 56.86 22.44 57.01C23.06 57.17 23.69 57.28 24.31 57.34C24.94 57.41 25.51 57.45 26.03 57.45C27.26 57.45 28.48 57.31 29.7 57.03C30.93 56.77 32.1 56.38 33.22 55.87C34.34 55.37 35.38 54.74 36.35 54C37.31 53.26 38.15 52.42 38.86 51.48C39.57 50.55 40.12 49.51 40.52 48.38C40.93 47.25 41.13 46.03 41.13 44.75C41.13 43.35 40.84 42.1 40.25 41.01C39.67 39.9 38.89 38.96 37.92 38.21C36.96 37.45 35.84 36.87 34.58 36.47C33.31 36.06 32 35.86 30.64 35.86L30.02 35.86C29.96 35.86 29.9 35.86 29.84 35.88L29.81 35.77C30.55 35.43 31.32 35.04 32.1 34.61C32.9 34.17 33.66 33.68 34.4 33.15C35.13 32.61 35.82 32.02 36.47 31.38C37.12 30.74 37.69 30.05 38.17 29.32Q38.55 28.73 38.84 28.11Q39.11 27.54 39.31 26.93C39.6 26.08 39.74 25.17 39.74 24.22C39.74 23.14 39.52 22.19 39.08 21.37C38.64 20.54 38.05 19.84 37.3 19.29C36.56 18.72 35.7 18.3 34.72 18.03C33.75 17.74 32.73 17.59 31.67 17.59C30.9 17.59 30.08 17.67 29.21 17.83C28.36 17.97 27.51 18.19 26.66 18.48C25.83 18.77 25.03 19.12 24.26 19.54Q23.1 20.16 22.22 20.95C21.64 21.48 21.18 22.07 20.83 22.71C20.49 23.33 20.32 24.01 20.32 24.75Q20.32 25.51 20.56 26.1C20.73 26.49 20.95 26.81 21.24 27.08C21.53 27.34 21.87 27.54 22.26 27.67C22.65 27.81 23.08 27.87 23.54 27.87C24.21 27.87 24.91 27.7 25.63 27.35L25.71 27.11C25.13 26.64 24.71 26.08 24.44 25.43C24.18 24.78 24.04 24.11 24.04 23.41C24.04 22.93 24.13 22.47 24.3 22.04C24.48 21.59 24.76 21.21 25.15 20.88C25.53 20.54 26.03 20.28 26.65 20.09C27.27 19.88 28.03 19.78 28.92 19.78C29.79 19.78 30.6 19.91 31.36 20.18C32.12 20.44 32.78 20.83 33.35 21.33C33.91 21.83 34.36 22.43 34.68 23.16C35.02 23.88 35.19 24.69 35.19 25.6C35.19 26.98 34.91 28.23 34.34 29.34C33.79 30.44 33.04 31.43 32.1 32.3Q30.69 33.6 28.87 34.57ZM62.98 18.46C61.56 17.91 60.01 17.63 58.33 17.63C57.13 17.63 55.97 17.79 54.85 18.12C53.73 18.43 52.68 18.89 51.7 19.49C50.73 20.09 49.84 20.83 49.03 21.69C48.23 22.56 47.55 23.54 46.97 24.64C46.4 25.73 45.96 26.94 45.65 28.25C45.34 29.55 45.18 30.94 45.18 32.42C45.18 34.52 45.48 36.37 46.08 37.97C46.69 39.57 47.51 40.92 48.56 42C49.62 43.07 50.87 43.88 52.3 44.42C53.73 44.97 55.27 45.25 56.92 45.25C58.13 45.25 59.29 45.1 60.39 44.78C61.5 44.47 62.54 44.01 63.5 43.41C64.48 42.81 65.36 42.07 66.16 41.21C66.95 40.34 67.63 39.36 68.18 38.26C68.75 37.15 69.19 35.94 69.5 34.63C69.81 33.3 69.97 31.89 69.97 30.38C69.97 28.32 69.67 26.5 69.08 24.93C68.51 23.34 67.7 22 66.66 20.92C65.64 19.83 64.41 19.01 62.98 18.46ZM61.26 42.09C60.36 42.61 59.33 42.87 58.17 42.87C56.85 42.87 55.65 42.53 54.59 41.86C53.55 41.18 52.65 40.28 51.9 39.15C51.16 38.01 50.58 36.71 50.19 35.24C49.79 33.76 49.59 32.22 49.59 30.62C49.59 28.96 49.78 27.47 50.15 26.17C50.52 24.86 51.04 23.75 51.69 22.85C52.35 21.93 53.12 21.24 54.02 20.77C54.92 20.29 55.89 20.05 56.92 20.05C57.79 20.05 58.6 20.2 59.36 20.5C60.12 20.8 60.82 21.22 61.46 21.77C62.1 22.31 62.66 22.95 63.16 23.7C63.66 24.45 64.09 25.28 64.44 26.19C64.79 27.1 65.05 28.06 65.24 29.1C65.43 30.12 65.52 31.18 65.52 32.28C65.52 33.83 65.36 35.26 65.02 36.56C64.69 37.85 64.21 38.96 63.57 39.9C62.95 40.83 62.18 41.56 61.26 42.09ZM109.79 44.55C110.96 44.96 112.21 45.16 113.56 45.16C115.31 45.16 116.83 44.81 118.12 44.11Q119.09 43.58 119.9 42.85Q120.69 42.14 121.31 41.24C122.16 40.04 122.78 38.63 123.19 37.03C123.6 35.42 123.81 33.71 123.81 31.92Q123.81 29.15 123.1 27.17C122.64 25.84 122 24.75 121.17 23.9C120.35 23.03 119.37 22.4 118.22 22C117.08 21.59 115.83 21.39 114.47 21.39C112.74 21.39 111.23 21.74 109.91 22.45C108.6 23.15 107.51 24.1 106.63 25.31C105.75 26.51 105.08 27.91 104.64 29.52C104.19 31.12 103.97 32.82 103.97 34.61C103.97 36.45 104.22 38.04 104.71 39.38C105.2 40.71 105.88 41.8 106.73 42.65C107.6 43.51 108.62 44.14 109.79 44.55ZM116.26 42.57Q115.2 43.17 113.8 43.17C113 43.17 112.24 43.01 111.52 42.67C110.81 42.33 110.18 41.79 109.64 41.04C109.1 40.28 108.67 39.3 108.34 38.1C108.03 36.89 107.87 35.42 107.87 33.67C107.87 32.15 107.99 30.76 108.23 29.5C108.49 28.22 108.86 27.13 109.35 26.23C109.86 25.31 110.49 24.6 111.25 24.1C112.01 23.59 112.91 23.34 113.94 23.34C114.75 23.34 115.51 23.51 116.24 23.84C116.96 24.18 117.59 24.73 118.13 25.49Q118.97 26.61 119.43 28.41C119.76 29.62 119.92 31.09 119.92 32.84Q119.92 35.12 119.54 37.01C119.3 38.28 118.93 39.37 118.42 40.28C117.92 41.2 117.28 41.91 116.51 42.42Q116.39 42.5 116.26 42.57ZM16.91 29.66Q16.85 29.26 16.69 28.85C16.15 28.94 15.55 29.01 14.88 29.05C14.23 29.07 13.57 29.08 12.88 29.08C11.75 29.08 10.69 29.06 9.7 29.01C8.72 28.96 7.82 28.94 6.99 28.94Q5.76 28.94 4.75 29.05C4.09 29.12 3.52 29.27 3.05 29.5C2.58 29.73 2.21 30.06 1.95 30.49C1.7 30.93 1.57 31.51 1.57 32.24Q2.73 31.92 3.88 31.81C4.65 31.73 5.44 31.68 6.23 31.68Q7.15 31.68 8.04 31.74C8.64 31.76 9.25 31.79 9.86 31.83C10.48 31.86 11.07 31.89 11.65 31.92C12.24 31.94 12.83 31.96 13.42 31.96Q14.38 31.96 15.05 31.9C15.5 31.86 15.87 31.79 16.15 31.67C16.44 31.55 16.65 31.38 16.78 31.18C16.91 30.97 16.98 30.7 16.98 30.35C16.98 30.14 16.96 29.91 16.91 29.66Z" fill="#FFA55C" fill-opacity="1.000000" fill-rule="evenodd"/>
</svg>
